<?xml version="1.0" encoding="UTF-8"?>
<svg width="512" height="512" viewBox="0 0 512 512" fill="none" xmlns="http://www.w3.org/2000/svg">
  <rect width="512" height="512" rx="100" fill="#1F4287"/>
  <path d="M256 136C188.8 136 134 190.8 134 258C134 325.2 188.8 380 256 380C323.2 380 378 325.2 378 258C378 190.8 323.2 136 256 136ZM256 352C204.2 352 162 309.8 162 258C162 206.2 204.2 164 256 164C307.8 164 350 206.2 350 258C350 309.8 307.8 352 256 352Z" fill="white"/>
  <path d="M256 192C219.5 192 190 221.5 190 258C190 294.5 219.5 324 256 324C292.5 324 322 294.5 322 258C322 221.5 292.5 192 256 192ZM256 296C234.9 296 218 279.1 218 258C218 236.9 234.9 220 256 220C277.1 220 294 236.9 294 258C294 279.1 277.1 296 256 296Z" fill="white"/>
  <circle cx="256" cy="258" r="20" fill="white"/>
</svg>
